<?xml version="1.0" standalone="no"?>
<!DOCTYPE svg PUBLIC "-//W3C//DTD SVG 20010904//EN"
 "http://www.w3.org/TR/2001/REC-SVG-20010904/DTD/svg10.dtd">
<svg version="1.0" xmlns="http://www.w3.org/2000/svg"
 width="500.000000pt" height="500.000000pt" viewBox="0 0 500.000000 500.000000"
 preserveAspectRatio="xMidYMid meet">

<g transform="translate(0.000000,500.000000) scale(0.100000,-0.100000)"
fill="#000000" stroke="none">
<path d="M2420 4758 c-7 -15 -8 -68 -3 -158 8 -134 8 -135 35 -144 19 -7 31
-6 43 4 13 11 15 36 13 164 l-3 151 -37 3 c-31 3 -40 -1 -48 -20z"/>
<path d="M1972 4578 c-10 -13 -15 -33 -13 -56 2 -19 174 -192 192 -192 21 0
46 21 53 45 4 15 -15 42 -88 118 -92 95 -121 112 -144 85z"/>
<path d="M2817 4504 c-45 -47 -86 -93 -90 -101 -13 -21 19 -63 47 -63 31 0
196 165 196 196 0 25 -29 54 -54 54 -9 0 -54 -39 -99 -86z"/>
<path d="M2400 4306 c-99 -20 -184 -85 -232 -176 -19 -38 -23 -60 -23 -135 0
-81 3 -96 32 -151 61 -117 148 -169 283 -169 71 0 94 4 141 26 71 34 132 88
158 142 102 210 -28 445 -259 469 -25 3 -70 0 -100 -6z m170 -107 c58 -26 77
-44 106 -101 43 -84 28 -196 -34 -261 -58 -62 -170 -92 -245 -68 -96 32 -167
126 -167 221 0 85 62 180 140 214 51 22 146 20 200 -5z"/>
<path d="M2920 4051 c-5 -11 -10 -28 -10 -38 0 -37 20 -43 140 -42 153 2 174
7 178 42 6 52 -7 57 -159 57 -126 0 -139 -2 -149 -19z"/>
<path d="M1716 4044 c-9 -25 -7 -62 4 -69 13 -8 264 -7 285 2 11 4 15 16 13
42 l-3 36 -146 3 c-127 2 -147 0 -153 -14z"/>
<path d="M2092 3613 c-67 -72 -132 -152 -132 -163 0 -17 32 -40 54 -40 32 0
196 169 196 202 0 26 -27 58 -50 58 -8 0 -38 -26 -68 -57z"/>
<path d="M2742 3658 c-30 -30 -14 -63 82 -156 51 -51 100 -92 108 -92 8 0 23
9 33 20 17 18 17 23 4 50 -8 16 -49 65 -92 109 -78 81 -108 96 -135 69z"/>
<path d="M2430 3511 c-5 -11 -10 -51 -10 -90 l0 -71 -38 -25 c-59 -39 -85 -93
-80 -168 l3 -62 -315 -6 c-173 -4 -516 -7 -762 -8 l-448 -1 0 70 c0 105 -35
157 -123 181 -54 14 -117 -9 -155 -59 -25 -32 -27 -43 -26 -116 1 -45 5 -497
8 -1006 5 -657 10 -928 18 -938 9 -10 5 -27 -16 -70 -35 -72 -308 -560 -352
-628 l-32 -51 6 -152 c5 -145 6 -151 26 -151 421 -7 4738 28 4748 38 6 6 8 72
6 153 -3 128 -5 147 -24 174 -23 32 -335 568 -378 648 -24 46 -25 51 -11 83
11 26 12 41 4 62 -7 18 -12 354 -15 981 -4 798 -8 959 -19 982 -35 67 -132 97
-206 64 -57 -26 -83 -73 -89 -165 l-5 -75 -600 -7 c-330 -4 -672 -7 -760 -5
l-160 2 3 60 c4 74 -8 108 -57 160 -36 38 -39 45 -44 117 -3 43 -8 82 -12 88
-11 18 -73 12 -85 -9z m74 -273 c24 -22 30 -37 27 -65 -1 -9 -21 -13 -66 -13
-61 0 -65 1 -65 23 0 26 16 50 45 65 28 16 31 15 59 -10z m1849 10 c9 -7 19
-25 22 -40 6 -23 3 -28 -19 -34 -15 -3 -47 -3 -72 1 -44 6 -45 8 -39 33 4 15
11 33 17 39 13 17 69 17 91 1z m-3684 -34 c32 -41 27 -61 -15 -66 -61 -7 -94
2 -94 25 0 28 38 67 66 67 12 0 32 -12 43 -26z m3694 -161 c3 -10 7 -396 9
-858 l3 -840 -23 -3 c-13 -2 -36 1 -51 8 l-28 11 -6 332 c-6 261 -11 1325 -8
1360 1 4 23 7 50 7 39 0 51 -4 54 -17z m-1839 -40 c3 -27 6 -410 8 -853 l3
-805 -56 -3 -56 -3 -6 198 c-5 152 -12 1468 -8 1506 1 4 25 7 55 7 l54 0 6
-47z m-1840 5 c10 -64 16 -1663 7 -1677 -6 -9 -27 -15 -56 -15 l-46 -1 -4 110
c-3 103 -9 1591 -6 1608 0 4 23 7 51 7 48 0 49 -1 54 -32z m3476 -96 l0 -89
-547 -6 c-302 -4 -648 -7 -771 -7 l-223 0 3 88 3 87 435 5 c239 3 585 6 768 8
l332 2 0 -88z m-1852 -13 l3 -86 -227 -6 c-125 -4 -470 -7 -766 -7 l-539 0 3
88 3 87 640 5 c352 3 694 5 760 5 l120 0 3 -86z m1853 -231 c1 -35 3 -73 4
-85 1 -12 -1 -26 -4 -31 -4 -5 -313 -12 -774 -16 l-768 -8 3 94 3 93 580 5
c319 3 664 6 768 8 l187 2 1 -62z m-1851 -41 l0 -94 -367 -6 c-203 -4 -547 -7
-765 -7 l-398 0 0 90 0 90 28 1 c15 1 349 5 742 8 393 4 725 8 738 9 21 2 22
-1 22 -91z m1858 -324 l3 -141 -28 -5 c-16 -3 -363 -7 -773 -9 l-745 -3 0 145
0 145 480 5 c264 3 611 5 770 5 l290 0 3 -142z m-1853 27 l0 -105 -754 -8
c-415 -4 -760 -6 -768 -3 -10 4 -13 31 -13 106 0 55 1 101 3 102 2 2 1321 14
1452 14 l80 -1 0 -105z m5 -334 l0 -134 -492 -6 c-271 -4 -617 -6 -768 -4
l-275 3 0 130 0 130 415 5 c228 3 574 6 768 8 l352 2 0 -134z m1850 -30 l0
-94 -482 -6 c-266 -4 -613 -6 -773 -4 l-290 3 0 90 0 90 365 5 c201 3 548 6
773 8 l407 2 0 -94z m-1852 -293 l3 -91 -443 -6 c-244 -4 -589 -6 -768 -4
l-325 3 -3 83 c-3 67 -1 83 12 88 13 5 1482 23 1511 19 6 -1 11 -42 13 -92z
m1852 9 l0 -89 -527 -6 c-860 -11 -1010 -10 -1017 9 -3 9 -6 49 -6 90 l0 73
153 4 c83 1 432 4 775 5 l622 2 0 -88z m0 -236 l0 -54 -62 -6 c-35 -3 -380 -7
-768 -8 l-705 -3 0 55 0 55 345 5 c190 3 535 6 768 8 l422 2 0 -54z m-1846 -9
c0 -26 -4 -51 -10 -56 -5 -5 -348 -10 -764 -12 l-755 -4 -3 57 -3 58 378 3
c208 1 554 2 768 2 l390 0 -1 -48z m1838 -210 c9 -91 12 -97 48 -97 31 0 34 3
44 52 14 64 77 80 99 26 8 -18 75 -139 149 -268 167 -292 231 -410 226 -415
-2 -2 -116 -7 -254 -10 -233 -6 -251 -5 -266 12 -15 17 -83 161 -240 513 -101
224 -109 248 -95 254 7 2 73 4 147 3 l135 -2 7 -68z m-1910 -17 c-3 -72 -20
-301 -43 -570 -6 -69 -13 -128 -17 -132 -12 -11 -839 -22 -846 -10 -6 11 146
530 212 722 l19 55 299 5 c164 3 317 6 339 5 l40 0 -3 -75z m1197 -102 c55
-168 159 -507 174 -569 l7 -26 -283 -7 c-328 -8 -519 -7 -536 3 -7 5 -17 76
-26 187 -8 98 -21 263 -30 365 -8 102 -15 195 -15 207 l0 22 324 0 324 0 61
-182z m336 100 c44 -97 123 -275 228 -516 53 -120 72 -174 64 -178 -7 -2 -85
-3 -172 -2 l-160 3 -27 80 c-55 165 -218 676 -218 685 0 6 48 10 124 10 l123
0 38 -82z m-2681 50 c-6 -22 -149 -374 -256 -633 l-54 -130 -272 -3 c-256 -2
-271 -1 -265 15 4 10 46 88 93 173 85 153 217 393 263 480 l24 45 69 0 69 0 5
-44 c6 -52 29 -73 55 -51 15 12 17 26 11 87 -4 52 -2 73 7 76 6 3 67 6 135 6
l123 1 -7 -22z m356 -1 c0 -13 -9 -50 -21 -83 -11 -32 -37 -117 -59 -189 -85
-290 -142 -471 -152 -483 -8 -9 -53 -12 -164 -12 -177 0 -169 -5 -128 93 15
34 55 134 91 222 113 280 185 450 195 463 7 8 45 12 124 12 113 0 114 0 114
-23z m1193 -122 c4 -55 16 -216 28 -357 11 -142 17 -262 14 -268 -8 -12 -381
-14 -389 -2 -3 5 1 89 9 188 8 98 20 256 26 349 6 94 13 176 15 183 3 10 37
12 146 10 l143 -3 8 -100z m2135 -787 l-3 -83 -410 -6 c-225 -4 -882 -9 -1460
-13 -577 -3 -1424 -9 -1881 -13 l-831 -6 -7 78 c-4 43 -3 81 1 85 4 5 964 13
2133 20 2006 11 2262 13 2403 18 l58 2 -3 -82z"/>
</g>
</svg>
